<?xml version="1.0" encoding="UTF-8" standalone="no"?>
<!-- Created with Inkscape (http://www.inkscape.org/) -->

<svg
   xmlns:dc="http://purl.org/dc/elements/1.1/"
   xmlns:cc="http://creativecommons.org/ns#"
   xmlns:rdf="http://www.w3.org/1999/02/22-rdf-syntax-ns#"
   xmlns:svg="http://www.w3.org/2000/svg"
   xmlns="http://www.w3.org/2000/svg"
   xmlns:sodipodi="http://sodipodi.sourceforge.net/DTD/sodipodi-0.dtd"
   xmlns:inkscape="http://www.inkscape.org/namespaces/inkscape"
   width="18"
   height="140"
   id="svg2"
   version="1.1"
   inkscape:version="0.48.3.1 r9886"
   sodipodi:docname="film.svg"
   inkscape:export-filename="/home/kore/devel/recipes/trunk/src/htdocs/images/film.png"
   inkscape:export-xdpi="90"
   inkscape:export-ydpi="90">
  <defs
     id="defs4" />
  <sodipodi:namedview
     id="base"
     pagecolor="#ffffff"
     bordercolor="#666666"
     borderopacity="1.0"
     inkscape:pageopacity="0.0"
     inkscape:pageshadow="2"
     inkscape:zoom="2.1289062"
     inkscape:cx="-47.337615"
     inkscape:cy="70"
     inkscape:document-units="px"
     inkscape:current-layer="layer1"
     showgrid="false"
     inkscape:window-width="1366"
     inkscape:window-height="717"
     inkscape:window-x="0"
     inkscape:window-y="27"
     inkscape:window-maximized="1" />
  <metadata
     id="metadata7">
    <rdf:RDF>
      <cc:Work
         rdf:about="">
        <dc:format>image/svg+xml</dc:format>
        <dc:type
           rdf:resource="http://purl.org/dc/dcmitype/StillImage" />
        <dc:title />
      </cc:Work>
    </rdf:RDF>
  </metadata>
  <g
     inkscape:label="Layer 1"
     inkscape:groupmode="layer"
     id="layer1"
     transform="translate(0,-912.36218)">
    <rect
       style="color:#000000;fill:#2e3436;fill-opacity:1;fill-rule:nonzero;stroke:none;stroke-width:1.50000000000000000;marker:none;visibility:visible;display:inline;overflow:visible;enable-background:accumulate"
       id="rect2985"
       x="0"
       y="912.36218"
       height="140"
       width="18" />
    <g
       id="g3768">
      <rect
         style="color:#000000;fill:#babdb6;fill-opacity:1;fill-rule:nonzero;stroke:none;stroke-width:1.50000000000000000;marker:none;visibility:visible;display:inline;overflow:visible;enable-background:accumulate"
         id="rect3761"
         width="13"
         height="15"
         x="2"
         y="914.36218"
         ry="3.5"
         rx="3.5" />
      <path
         id="rect2993"
         transform="translate(0,912.36218)"
         d="M 6.4375 2.9375 C 4.4985 2.9375 2.9375 4.4985 2.9375 6.4375 L 2.9375 14.4375 C 2.9375 15.164625 3.1546035 15.847822 3.53125 16.40625 C 4.0896777 16.782896 4.772875 17 5.5 17 L 11.5 17 C 13.439 17 15 15.439 15 13.5 L 15 5.5 C 15 4.772875 14.782896 4.0896777 14.40625 3.53125 C 13.847822 3.1546035 13.164625 2.9375 12.4375 2.9375 L 6.4375 2.9375 z "
         style="color:#000000;fill:#eeeeec;fill-opacity:1;fill-rule:nonzero;stroke:none;stroke-width:1.50000000000000000;marker:none;visibility:visible;display:inline;overflow:visible;enable-background:accumulate" />
    </g>
    <g
       id="g3772"
       transform="translate(0,121)">
      <rect
         rx="3.5"
         ry="3.5"
         y="914.36218"
         x="2"
         height="15"
         width="13"
         id="rect3774"
         style="color:#000000;fill:#babdb6;fill-opacity:1;fill-rule:nonzero;stroke:none;stroke-width:1.5;marker:none;visibility:visible;display:inline;overflow:visible;enable-background:accumulate" />
      <path
         style="color:#000000;fill:#eeeeec;fill-opacity:1;fill-rule:nonzero;stroke:none;stroke-width:1.5;marker:none;visibility:visible;display:inline;overflow:visible;enable-background:accumulate"
         d="m 6.4375,2.9375 c -1.939,0 -3.5,1.561 -3.5,3.5 l 0,8 c 0,0.727125 0.2171035,1.410322 0.59375,1.96875 C 4.0896777,16.782896 4.772875,17 5.5,17 l 6,0 c 1.939,0 3.5,-1.561 3.5,-3.5 l 0,-8 C 15,4.772875 14.782896,4.0896777 14.40625,3.53125 13.847822,3.1546035 13.164625,2.9375 12.4375,2.9375 l -6,0 z"
         transform="translate(0,912.36218)"
         id="path3776"
         inkscape:connector-curvature="0" />
    </g>
  </g>
</svg>
